<?xml version="1.0" standalone="no"?>
<!DOCTYPE svg PUBLIC "-//W3C//DTD SVG 20010904//EN"
 "http://www.w3.org/TR/2001/REC-SVG-20010904/DTD/svg10.dtd">
<svg version="1.0" xmlns="http://www.w3.org/2000/svg"
 width="120.000000pt" height="120.000000pt" viewBox="0 0 120.000000 120.000000"
 preserveAspectRatio="xMidYMid meet">
<metadata>
Created by potrace 1.11, written by Peter Selinger 2001-2013
</metadata>
<g transform="translate(0.000000,120.000000) scale(0.100000,-0.100000)"
fill="#000000" stroke="none">
<path d="M10 600 l0 -590 383 0 c210 -1 474 -1 587 -2 l205 -1 3 592 2 591
-590 0 -590 0 0 -590z m1146 -2 l1 -558 -558 0 -559 0 0 560 0 560 558 -2 557
-3 1 -557z"/>
<path d="M237 1075 c-60 -20 -93 -53 -128 -124 -22 -43 -41 -121 -31 -121 3 0
14 8 24 17 18 16 23 13 106 -69 l87 -86 23 22 c18 18 22 33 22 81 l0 58 25
-23 c22 -21 25 -32 25 -95 0 -70 1 -73 36 -105 l36 -33 -176 -176 -176 -176
69 -69 69 -69 172 172 c95 94 176 171 180 171 5 0 84 -77 178 -170 93 -94 173
-170 177 -170 9 0 135 121 135 131 0 4 -79 86 -175 182 l-176 175 36 33 c34
32 35 36 35 104 0 63 3 74 25 95 l25 23 0 -56 c0 -44 5 -62 20 -77 11 -11 23
-20 27 -20 4 0 44 36 88 80 59 59 86 79 98 74 9 -3 17 -10 17 -15 0 -5 5 -9
11 -9 32 0 -31 150 -84 201 -46 44 -88 58 -146 46 -36 -7 -59 -24 -142 -106
l-99 -97 22 -21 21 -22 -46 -46 -47 -46 -47 46 -47 45 21 21 21 21 -88 88
c-117 117 -157 138 -223 115z"/>
</g>
</svg>
